<?xml version="1.0" encoding="iso-8859-1"?>
<!-- Uploaded to: SVG Repo, www.svgrepo.com, Generator: SVG Repo Mixer Tools -->
<svg version="1.1" id="Layer_1" xmlns="http://www.w3.org/2000/svg" xmlns:xlink="http://www.w3.org/1999/xlink" 
	 viewBox="0 0 512 512" xml:space="preserve">
<path style="fill:#FCB9B0;" d="M511.784,266.09c0.13-3.349,0.216-6.708,0.216-10.09C512,114.616,397.385,0,256,0S0,114.616,0,256
	c0,113.387,73.724,209.54,175.844,243.182L511.784,266.09z"/>
<path style="fill:#FB9789;" d="M262.524,90.238l-6.518,243.673l-27.832,22.263L55.652,378.99l120.192,120.192
	C201.06,507.49,228.001,512,256,512c138.004,0,250.484-109.205,255.784-245.911l-213.21-213.21
	C283.284,52.878,262.524,90.238,262.524,90.238z"/>
<path style="fill:#813115;" d="M267.134,155.836h-22.261v-33.391c0-32.969,14.206-64.411,38.975-86.26l14.726,16.693
	c-19.98,17.626-31.44,42.981-31.44,69.566V155.836z"/>
<path style="fill:#D92444;" d="M233.739,250.435L256,351.406c8.705,3.078,18.067,4.768,27.826,4.768
	c46.103,0,83.478-37.374,83.478-83.478L233.739,250.435z"/>
<path style="fill:#F72E12;" d="M144.696,272.696c0,46.104,37.375,83.478,83.478,83.478c9.759,0,19.121-1.692,27.826-4.768V250.435
	L144.696,272.696z"/>
<path style="fill:#F8513A;" d="M310.759,175.778l-11.566-46.345c-4.831-19.363-22.333-33.712-43.194-33.712l-22.261,88.487
	L256,272.696c27.827,0,27.821,13.357,55.649,13.357s27.828-13.357,55.655-13.357C367.304,231.13,333.388,194.894,310.759,175.778z"
	/>
<g>
	<path style="fill:#FA7461;" d="M212.807,129.434l-11.566,46.345c-33.76,19.115-56.546,55.352-56.546,96.917
		c27.825,0,27.825,13.357,55.65,13.357c27.824,0,27.831-13.357,55.654-13.357V95.722C235.14,95.722,217.638,110.071,212.807,129.434
		z"/>
	<rect x="311.341" y="236.455" style="fill:#FA7461;" width="22.88" height="22.88"/>
	<rect x="277.949" y="203.064" style="fill:#FA7461;" width="22.88" height="22.88"/>
</g>
<polygon style="fill:#FFE376;" points="422.957,378.99 400.696,417.947 256,417.947 234.296,373.425 "/>
<g>
	<polygon style="fill:#FFF3AD;" points="111.304,417.947 256,417.947 256,367.86 89.043,378.99 	"/>
	<polygon style="fill:#FFF3AD;" points="456.348,356.729 456.348,378.99 256,378.99 245.009,367.86 256,356.729 	"/>
</g>
<rect x="55.652" y="356.73" style="fill:#FFFFFF;" width="200.348" height="22.261"/>
</svg>