<!DOCTYPE svg PUBLIC "-//W3C//DTD SVG 1.1//EN" "http://www.w3.org/Graphics/SVG/1.1/DTD/svg11.dtd">
<!-- Uploaded to: SVG Repo, www.svgrepo.com, Transformed by: SVG Repo Mixer Tools -->
<svg fill="#e9e9eb" height="800px" width="800px" version="1.1" id="Layer_1" xmlns="http://www.w3.org/2000/svg" xmlns:xlink="http://www.w3.org/1999/xlink" viewBox="0 0 512.001 512.001" xml:space="preserve" stroke="#e9e9eb" stroke-width="0.0051200099999999995">
<g id="SVGRepo_bgCarrier" stroke-width="0"/>
<g id="SVGRepo_tracerCarrier" stroke-linecap="round" stroke-linejoin="round"/>
<g id="SVGRepo_iconCarrier"> <g> <g> <path d="M354.304,300.392c-1.533-1.532-3.61-2.392-5.778-2.392c-2.168,0-4.244,0.861-5.778,2.392l-3.802,3.802l-48.184-48.183 l26.469-26.472l17.325,17.323c7.688,7.688,17.944,11.922,28.877,11.922c10.938,0,21.198-4.239,28.888-11.933l107.74-107.823 c15.918-15.931,15.919-41.853,0.002-57.784l-69.232-69.299c-7.69-7.694-17.946-11.932-28.88-11.932 c-10.934,0-21.19,4.237-28.877,11.931L265.279,119.82c-15.919,15.932-15.914,41.851,0.011,57.778l17.281,17.281l-26.468,26.472 l-62.832-62.832c9.437-23.164,4.237-49.705-13.773-67.693L90.972,2.399c-2.338-2.336-5.854-3.032-8.906-1.765 c-3.052,1.267-5.04,4.248-5.038,7.554l0.047,46.169c0.002,2.163,0.863,4.239,2.393,5.769l59.592,59.59l-19.208,19.208 L60.261,79.332c-1.532-1.532-3.61-2.392-5.777-2.392L8.171,76.938c-3.306,0-6.285,1.991-7.549,5.046 c-1.265,3.055-0.564,6.569,1.774,8.905l88.575,88.478c17.935,17.912,44.436,23.109,67.584,13.763l45.557,45.557 c1.595,1.595,3.686,2.392,5.777,2.392s4.182-0.797,5.777-2.392c3.191-3.192,3.191-8.364,0-11.554l-49.574-49.574 c-2.52-2.52-6.38-3.113-9.542-1.474c-17.998,9.35-39.713,6.022-54.031-8.279L27.91,93.279l23.191,0.001l62.976,62.976 c3.191,3.19,8.364,3.19,11.553,0l30.763-30.761c1.533-1.533,2.393-3.61,2.393-5.778c0-2.168-0.861-4.244-2.393-5.778 l-62.98-62.978L93.39,27.909l74.561,74.479c14.377,14.358,17.701,36.094,8.274,54.084c-1.659,3.166-1.068,7.042,1.46,9.57 l66.865,66.864l-71.397,71.406l-3.915-3.915c-1.532-1.532-3.61-2.392-5.777-2.392s-4.245,0.861-5.777,2.392l-23.102,23.102 c-0.012,0.012-123.249,123.249-123.249,123.249c-14.993,14.995-15.099,39.285-0.235,54.152 c7.151,7.151,16.688,11.091,26.852,11.091c10.29,0,19.985-4.022,27.298-11.327l146.35-146.352c3.191-3.192,3.191-8.364,0-11.554 l-3.788-3.788l71.397-71.404l48.184,48.183l-11.553,11.553l-30.853-30.853c-3.192-3.19-8.364-3.19-11.554,0 c-3.191,3.192-3.191,8.364,0,11.554l30.853,30.853l-3.896,3.896c-1.532,1.533-2.392,3.61-2.392,5.778s0.861,4.244,2.392,5.778 l23.106,23.106c0.003,0.003,123.245,123.244,123.245,123.244c7.308,7.307,17,11.331,27.292,11.332 c10.164,0,19.704-3.941,26.86-11.098c14.855-14.856,14.749-39.146-0.237-54.151L354.304,300.392z M276.844,166.045 c-9.557-9.558-9.56-25.112-0.006-34.674L384.634,23.492c4.6-4.605,10.75-7.141,17.317-7.141c6.568,0,12.719,2.537,17.319,7.142 l69.232,69.299c9.554,9.563,9.554,25.123-0.002,34.686l-107.74,107.823c-4.602,4.607-10.756,7.144-17.328,7.144 c-6.569,0-12.721-2.535-17.322-7.137l-23.098-23.098c-0.007-0.007-23.103-23.102-23.103-23.102 C299.893,189.094,276.844,166.045,276.844,166.045z M53.697,489.106c-4.226,4.221-9.818,6.546-15.747,6.546 c-5.798,0-11.232-2.24-15.297-6.305c-8.493-8.495-8.389-22.42,0.234-31.044l117.466-117.466l30.807,30.807L53.697,489.106z M182.713,360.089l-30.807-30.807l11.553-11.553l3.911,3.911c0.009,0.009,23.108,23.109,23.108,23.109 c0.001,0.001,3.788,3.788,3.788,3.788L182.713,360.089z M273.455,250.211c-0.048,0.048-77.199,77.206-77.199,77.206l-11.55-11.551 l77.136-77.146c0.075-0.075,32.283-32.286,32.283-32.286l11.552,11.552L273.455,250.211z M317.719,348.531l26.995-26.994 c0.021-0.021,3.813-3.813,3.813-3.813l11.553,11.553l-30.807,30.807L317.719,348.531z M489.338,489.339 c-4.071,4.071-9.508,6.313-15.307,6.313c-5.926,0-11.515-2.326-15.736-6.548L340.827,371.639l30.807-30.807l117.462,117.462 C497.717,466.924,497.824,480.851,489.338,489.339z"/> </g> </g> <g> <g> <path d="M469.319,112.121c-3.19-3.19-8.363-3.191-11.553,0.001c-30.827,30.826-89.1,89.095-92.216,92.182 c-2.475,2.317-3.334,6.035-1.87,9.304c1.358,3.033,4.339,4.833,7.461,4.833c1.115,0,2.249-0.23,3.336-0.716 c1.397-0.625,1.397-0.625,16.905-16.124l77.939-77.927C472.511,120.484,472.511,115.31,469.319,112.121z"/> </g> </g> <g> <g> <path d="M399.94,42.681c-3.195-3.191-8.368-3.183-11.553,0.01l-77.882,78.035c-15.515,15.551-15.515,15.551-16.142,16.989 c-1.806,4.135,0.083,8.951,4.218,10.756c1.064,0.463,2.174,0.684,3.265,0.684c2.252,0,4.429-0.937,5.977-2.595 c3.085-3.121,61.326-61.47,92.127-92.326C403.138,51.041,403.134,45.867,399.94,42.681z"/> </g> </g> <g> <g> <path d="M446.187,88.928c-3.194-3.19-8.367-3.182-11.553,0.01l-77.881,78.034c-15.515,15.551-15.515,15.551-16.143,16.989 c-1.806,4.135,0.083,8.951,4.218,10.756c1.064,0.465,2.173,0.685,3.265,0.685c2.252,0,4.429-0.937,5.977-2.595 c3.085-3.121,61.326-61.47,92.127-92.325C449.386,97.288,449.381,92.115,446.187,88.928z"/> </g> </g> <g> <g> <path d="M423.081,65.82c-3.194-3.191-8.367-3.183-11.553,0.01l-77.882,78.035c-15.515,15.55-15.515,15.55-16.142,16.988 c-1.806,4.135,0.083,8.951,4.218,10.756c1.064,0.465,2.173,0.685,3.265,0.685c2.252,0,4.429-0.937,5.977-2.595 c3.085-3.121,61.326-61.47,92.127-92.325C426.279,74.18,426.275,69.007,423.081,65.82z"/> </g> </g> </g>
</svg>